<svg id="Layer_1" data-name="Layer 1" xmlns="http://www.w3.org/2000/svg" xmlns:xlink="http://www.w3.org/1999/xlink" viewBox="0 0 58.70457 39.11745"><defs><style>.cls-1{fill:none;clip-rule:evenodd;}.cls-2{fill-rule:evenodd;fill:url(#linear-gradient);}.cls-3{clip-path:url(#clip-path);}.cls-4{clip-path:url(#clip-path-2);}.cls-5{clip-path:url(#clip-path-3);}.cls-6{clip-path:url(#clip-path-4);}.cls-7{clip-path:url(#clip-path-5);}.cls-8{clip-path:url(#clip-path-6);}.cls-9{clip-path:url(#clip-path-7);}.cls-10{clip-path:url(#clip-path-8);}.cls-11{clip-path:url(#clip-path-9);}.cls-12{clip-path:url(#clip-path-10);}.cls-13{clip-path:url(#clip-path-11);}.cls-14{clip-path:url(#clip-path-12);}.cls-15{clip-path:url(#clip-path-13);}</style><linearGradient id="linear-gradient" x1="976.34507" y1="552.03381" x2="976.34507" y2="512.83348" gradientUnits="userSpaceOnUse"><stop offset="0" stop-color="#bca05c"/><stop offset="1" stop-color="#ebc480"/></linearGradient><clipPath id="clip-path" transform="translate(-946.10622 -513.77621)"><path id="SVGID" class="cls-1" d="M957.4252,534.22827c0.36176,0.01546.66843,0.02324,1.00277,0.02324,0.2359,0,.452-0.00778.61335-0.02324v0.15894a1.332,1.332,0,0,0-.70388.94153l-1.41949,4.53347c-0.08646-.00389-0.18477-0.00767-0.28308-0.00767s-0.18872.00378-.2753,0.00767l-1.18754-3.52987-1.19532,3.52987c-0.08658-.00389-0.18477-0.00767-0.2832-0.00767-0.09819,0-.18872.00378-0.27518,0.00767l-1.80484-4.96747a0.63943,0.63943,0,0,0-.50725-0.50753v-0.15894c0.31853,0.01546.79034,0.02324,1.19928,0.02324,0.4287,0,.7786-0.00778.99091-0.02324v0.15894a0.28267,0.28267,0,0,0-.28308.31,1.0911,1.0911,0,0,0,.07472.35648l1.16778,3.35547,0.82183-2.35966-0.41672-1.23617a0.49425,0.49425,0,0,0-.43648-0.42611v-0.15894c0.29482,0.01546.73525,0.02324,1.14814,0.02324,0.47181,0,.90446-0.00778,1.16-0.02324v0.15894c-0.36176.01546-.55048,0.05417-0.55048,0.29442a1.20927,1.20927,0,0,0,.08251.372l1.105,3.32066,0.76675-2.40238a3.23148,3.23148,0,0,0,.18081-0.92217,0.59633,0.59633,0,0,0-.692-0.66258v-0.15894Z"/></clipPath><clipPath id="clip-path-2" transform="translate(-946.10622 -513.77621)"><path id="SVGID-2" data-name="SVGID" class="cls-1" d="M963.90083,538.24261c-0.01568.14726-.02359,0.34869-0.02359,0.57336,0,0.20155.01581,0.62,0.05509,1.03074-0.52294-.02325-1.24646-0.02325-1.76162-0.02325s-1.65934,0-2.49686.02325v-0.15883c0.515-.02325.60545-0.10467,0.60545-0.68193v-3.14247c0-.58128-0.0982-0.65869-0.60545-0.68193V535.0226c0.83752,0.02325,1.98171.02325,2.49686,0.02325,0.46786,0,1.12851,0,1.60044-.02325-0.0394.37973-.05509,0.76724-0.05509,0.95321a4.1856,4.1856,0,0,0,.02359.49207h-0.18489a1.20025,1.20025,0,0,0-1.23855-1.26309h-0.29889c-0.38918,0-.50725.06585-0.50725,0.51531v1.61968h0.37756a0.89169,0.89169,0,0,0,.81393-0.85633h0.18477c-0.02359.26727-.02754,0.46115-0.02754,0.61608,0,0.124.004,0.22468,0.004,0.31766,0,0.217.0079,0.45348,0.04718,0.93775h-0.18477a0.84774,0.84774,0,0,0-.83752-0.85633h-0.37756v1.65071c0,0.44947.11807,0.51531,0.50725,0.51531h0.34607c0.7392,0,1.17568-.36037,1.35267-1.422h0.18477Z"/></clipPath><clipPath id="clip-path-3" transform="translate(-946.10622 -513.77621)"><path id="SVGID-3" data-name="SVGID" class="cls-1" d="M964.98493,535.02261c0.20058,0.01157.53085,0.02714,0.85728,0.02714,0.07472,0,.14932-0.00389.22022-0.00389,0.41684-.00767,1.0145-0.02325,1.3644-0.02325,1.89142,0,2.80749.8253,2.80749,2.3481,0,1.49188-1.04983,2.476-2.88221,2.476-0.27135,0-.88075-0.02324-1.27005-0.02324-0.42079,0-.85332.00778-1.09713,0.02324v-0.15883c0.51516-.02324.60557-0.10466,0.60557-0.68192v-3.14248c0-.58895-0.09831-0.65868-0.60557-0.68205v-0.15883Zm1.83634,3.99881c0,0.55414.08658,0.68193,0.50725,0.68193,1.26621,0,1.62007-.80972,1.62007-2.3016,0-1.49956-.41289-2.23577-1.628-2.23577-0.41277,0-.49935.13181-0.49935,0.68193v3.17351Z"/></clipPath><clipPath id="clip-path-4" transform="translate(-946.10622 -513.77621)"><path id="SVGID-4" data-name="SVGID" class="cls-1" d="M971.18112,535.02261c0.20046,0.01157.53072,0.02714,0.85716,0.02714,0.07472,0,.14944-0.00389.22021-0.00389,0.41673-.00767,1.01439-0.02325,1.36441-0.02325,1.89142,0,2.80749.8253,2.80749,2.3481,0,1.49188-1.04983,2.476-2.88221,2.476-0.27135,0-.88075-0.02324-1.27-0.02324-0.42079,0-.85332.00778-1.097,0.02324v-0.15883c0.515-.02324.60545-0.10466,0.60545-0.68192v-3.14248c0-.58895-0.09832-0.65868-0.60545-0.68205v-0.15883Zm1.83622,3.99881c0,0.55414.08657,0.68193,0.50725,0.68193,1.26621,0,1.62007-.80972,1.62007-2.3016,0-1.49956-.41289-2.23577-1.628-2.23577-0.41277,0-.49934.13181-0.49934,0.68193v3.17351Z"/></clipPath><clipPath id="clip-path-5" transform="translate(-946.10622 -513.77621)"><path id="SVGID-5" data-name="SVGID" class="cls-1" d="M979.81893,535.18149c-0.51515.02325-.60556,0.10077-0.60556,0.68193v3.14248c0,0.57737.09041,0.65868,0.60556,0.68192v0.15895c-0.27925-.01558-0.76674-0.02325-1.19532-0.02325-0.49552,0-.98313.00767-1.24658,0.02325v-0.15895c0.51516-.02324.60557-0.10455,0.60557-0.68192v-3.14248c0-.58116-0.09831-0.65868-0.60557-0.68193v-0.15883c0.26345,0.01546.75106,0.02325,1.24658,0.02325,0.42858,0,.91607-0.00779,1.19532-0.02325v0.15883Z"/></clipPath><clipPath id="clip-path-6" transform="translate(-946.10622 -513.77621)"><path id="SVGID-6" data-name="SVGID" class="cls-1" d="M985.81779,535.18149c-0.51121.06974-.60162,0.22857-0.60162,0.90282v3.77792c-0.07077-.0039-0.14154-0.0039-0.21231-0.0039-0.07472,0-.14549,0-0.21626.0039l-3.2205-3.94453v2.8673c0,0.67425.13375,0.83308,0.82973,0.90282v0.15895c-0.2359-.01558-0.58593-0.02325-0.92014-0.02325-0.25171,0-.53085.00767-0.69993,0.02325v-0.15895c0.51516-.06974.60557-0.22857,0.60557-0.90282v-2.92158c0-.58116-0.09437-0.65868-0.60557-0.68193v-0.15883c0.16908,0.01546.44822,0.02325,0.69993,0.02325,0.36571,0,.71166-0.00779.98313-0.02325l2.57158,3.14236v-2.08071c0-.67425-0.13376-0.83308-0.82973-0.90282v-0.15883c0.236,0.01546.58593,0.02325,0.91619,0.02325,0.25566,0,.5348-0.00779.69993-0.02325v0.15883Z"/></clipPath><clipPath id="clip-path-7" transform="translate(-946.10622 -513.77621)"><path id="SVGID-7" data-name="SVGID" class="cls-1" d="M991.29422,539.84673a0.2695,0.2695,0,0,0-.16909-0.29453,1.18448,1.18448,0,0,0-.401.1396,3.12883,3.12883,0,0,1-1.23867.26727c-1.75766,0-2.784-.89893-2.784-2.4294a2.55749,2.55749,0,0,1,2.788-2.61938,2.06645,2.06645,0,0,1,1.41554.51531,0.28639,0.28639,0,0,0,.16513.07752c0.10622,0,.16513-0.14337.19663-0.4805h0.18872c-0.02754.341-.03533,0.7866-0.03533,1.58476h-0.18489a1.9917,1.9917,0,0,0-.401-0.93374,1.44224,1.44224,0,0,0-1.12072-.55414c-1.06157,0-1.72222.91062-1.72222,2.321,0,1.65071.55839,2.35978,1.60043,2.35978a0.899,0.899,0,0,0,.46391-0.11234,0.35269,0.35269,0,0,0,.16525-0.341v-0.73621c0-.64322-0.12586-0.7401-0.76292-0.76334V537.6885c0.34608,0.01546.90829,0.02324,1.32909,0.02324,0.42857,0,.79824-0.00778,1.03019-0.02324v0.15883c-0.31063.02324-.36176,0.093-0.36176,0.68192v1.31748h-0.16118Z"/></clipPath><clipPath id="clip-path-8" transform="translate(-946.10622 -513.77621)"><path id="SVGID-8" data-name="SVGID" class="cls-1" d="M963.4578,542.32175c-0.51515.02325-.60556,0.10455-0.60556,0.68193v3.93686c0,0.57726.09436,0.65868,0.60556,0.68193v0.15883c-0.29889-.01546-0.79824-0.02325-1.26621-0.02325-0.515,0-.9987.00779-1.274,0.02325v-0.15883c0.55048-.02325.65274-0.10467,0.65274-0.68193v-4.13062l-1.93847,4.98306H959.502l-2.1745-5.11864v3.80505c0,0.87179.07077,1.07334,0.78255,1.14307v0.15883c-0.20836-.01546-0.582-0.02325-0.873-0.02325-0.25171,0-.53084.00779-0.69993,0.02325v-0.15883c0.51515-.06974.60557-0.279,0.60557-1.04619v-3.57259c0-.57738-0.09436-0.65868-0.60557-0.68193v-0.15895c0.16908,0.01558.44822,0.02336,0.69993,0.02336,0.46785,0,.92409-0.00779,1.274-0.02325l1.624,3.85921,1.48631-3.836h0.57012c0.468,0,.96732-0.00779,1.26621-0.02325v0.15883Z"/></clipPath><clipPath id="clip-path-9" transform="translate(-946.10622 -513.77621)"><path id="SVGID-9" data-name="SVGID" class="cls-1" d="M969.81548,545.32075a2.52754,2.52754,0,0,1-2.72115,2.57289,2.41427,2.41427,0,0,1-2.71708-2.47589,2.52653,2.52653,0,0,1,2.725-2.57289,2.413,2.413,0,0,1,2.71325,2.47589m-4.14843.066c0,1.44917.65275,2.36356,1.45877,2.36356,0.85333,0,1.39986-.99191,1.39986-2.39848,0-1.44917-.6488-2.36356-1.45889-2.36356-0.85321,0-1.39974.99191-1.39974,2.39848"/></clipPath><clipPath id="clip-path-10" transform="translate(-946.10622 -513.77621)"><path id="SVGID-10" data-name="SVGID" class="cls-1" d="M973.94714,542.95722c0.3068,0.01546.65275,0.02325,0.99092,0.02325,0.20057,0,.43648-0.00779.5858-0.02325v0.15883a1.55875,1.55875,0,0,0-.75094.97646l-1.58462,3.70428a1.42766,1.42766,0,0,0-.18489-0.01157,1.53427,1.53427,0,0,0-.18872.01157l-1.98578-4.1731a0.68614,0.68614,0,0,0-.50714-0.50764v-0.15883c0.25159,0.01546.67227,0.02325,1.05774,0.02325,0.515,0,.9987-0.00779,1.27-0.02325v0.15883c-0.33816.01558-.52305,0.08921-0.52305,0.3022a0.91836,0.91836,0,0,0,.10621.36427l1.29771,2.77432,0.81-1.8637a2.688,2.688,0,0,0,.2595-0.98035,0.56551,0.56551,0,0,0-.65275-0.59673v-0.15883Z"/></clipPath><clipPath id="clip-path-11" transform="translate(-946.10622 -513.77621)"><path id="SVGID-11" data-name="SVGID" class="cls-1" d="M978.58989,543.11606c-0.51516.02325-.60557,0.10077-0.60557,0.68193v3.14248c0,0.57738.09041,0.65868,0.60557,0.68193v0.15895c-0.27925-.01558-0.76675-0.02336-1.19533-0.02336-0.49551,0-.98313.00779-1.24657,0.02336v-0.15895c0.51515-.02325.60556-0.10455,0.60556-0.68193V543.798c0-.58115-0.09831-0.65868-0.60556-0.68193v-0.15883c0.26344,0.01546.75106,0.02325,1.24657,0.02325,0.42858,0,.91608-0.00779,1.19533-0.02325v0.15883Z"/></clipPath><clipPath id="clip-path-12" transform="translate(-946.10622 -513.77621)"><path id="SVGID-12" data-name="SVGID" class="cls-1" d="M983.77079,546.17712c-0.01568.14727-.02359,0.34881-0.02359,0.57348,0,0.20143.01581,0.62,0.05509,1.03074-0.52294-.02336-1.24646-0.02336-1.76161-0.02336s-1.65935,0-2.49687.02336v-0.15883c0.515-.02336.60545-0.10467,0.60545-0.682V543.798c0-.58115-0.0982-0.65868-0.60545-0.68193v-0.15883c0.83752,0.02325,1.98171.02325,2.49687,0.02325,0.46785,0,1.1285,0,1.60043-.02325-0.0394.37973-.05509,0.76712-0.05509,0.95321a4.189,4.189,0,0,0,.02359.49206h-0.18489a1.20028,1.20028,0,0,0-1.23855-1.2632h-0.29889c-0.38918,0-.50725.06585-0.50725,0.51543v1.61956h0.37756a0.8917,0.8917,0,0,0,.81393-0.85633h0.18477c-0.02359.26739-.02754,0.46115-0.02754,0.61608,0,0.124.004,0.22479,0.004,0.31778,0,0.217.0079,0.45336,0.04718,0.93775h-0.18477a0.84784,0.84784,0,0,0-.83752-0.85645H981.38v1.65071c0,0.44946.11807,0.51531,0.50725,0.51531h0.34607c0.7392,0,1.17568-.36026,1.35267-1.422h0.18477Z"/></clipPath><clipPath id="clip-path-13" transform="translate(-946.10622 -513.77621)"><path id="SVGID-13" data-name="SVGID" class="cls-1" d="M985.23239,545.902a1.63428,1.63428,0,0,0,1.60821,1.80954,0.78074,0.78074,0,0,0,.89655-0.72854c0-.45713-0.39325-0.71685-1.10886-1.11983-0.83369-.46882-1.57289-0.96088-1.57289-1.732,0-.86011.81393-1.28633,1.852-1.28633a2.10369,2.10369,0,0,1,1.12863.29441,0.59645,0.59645,0,0,0,.27122.11245c0.10622,0,.1455-0.12791.177-0.3527H988.669c-0.02359.28674-.03927,0.63555-0.03927,1.65071H988.445a1.49571,1.49571,0,0,0-1.45493-1.53059,0.75745,0.75745,0,0,0-.89656.62387c0,0.50374.55049,0.7788,1.29759,1.22438,0.77465,0.434,1.49817.87568,1.49817,1.67785,0,0.895-.84937,1.34839-1.98961,1.34839a2.69934,2.69934,0,0,1-1.24263-.31,0.71657,0.71657,0,0,0-.27913-0.09688c-0.10621,0-.14549.12013-0.177,0.34881h-0.18477c0.02359-.32946.0315-0.79828,0.0315-1.93356h0.18477Z"/></clipPath></defs><title>weddingmovies-logo</title><path class="cls-2" d="M1002.7295,534.22818l-5.83136,4.45752v-5.06482a2.39961,2.39961,0,0,0-2.41-2.37482h-2.915a10.481,10.481,0,0,0-2.29712-11.77283,10.90319,10.90319,0,0,0-6.46136-3.04852l1.41864-1.80225-0.70123-.84625h-4.39l-0.70111.84625,1.464,1.86a10.96444,10.96444,0,0,0-5.11273,2.19916,12.26918,12.26918,0,0,0-22.07874,7.04419,11.68665,11.68665,0,0,0,1.37506,5.52026h-3.7995a2.39953,2.39953,0,0,0-2.40979,2.37482V548.6702a2.39946,2.39946,0,0,0,2.40979,2.37463h44.199a2.39954,2.39954,0,0,0,2.41-2.37463v-5.0647l5.83148,4.45721,2.08118-1.675V535.90311ZM971.575,531.24606H956.81763a9.43,9.43,0,0,1-1.7749-5.52014,9.78266,9.78266,0,0,1,9.88318-9.6546,9.935,9.935,0,0,1,6.99078,2.83057,9.82244,9.82244,0,0,1,1.19495,1.41284A10.4714,10.4714,0,0,0,971.575,531.24606Zm2.16016-1.156a8.08433,8.08433,0,0,1,.601-7.31842A9.4489,9.4489,0,0,1,973.73517,530.09006Zm15.08893,1.156H975.7522a11.73855,11.73855,0,0,0,.29791-10.46216,8.58241,8.58241,0,0,1,11.50323.40015A8.09487,8.09487,0,0,1,988.8241,531.24606Z" transform="translate(-946.10622 -513.77621)"/><g class="cls-3"><rect y="15.45206" width="17.9351" height="15.63394"/></g><g class="cls-4"><rect x="8.56763" y="16.24639" width="14.25848" height="14.82411"/></g><g class="cls-5"><rect x="13.87871" y="16.2464" width="15.24939" height="14.82411"/></g><g class="cls-6"><rect x="20.0749" y="16.2464" width="15.24927" height="14.82411"/></g><g class="cls-7"><rect x="26.27081" y="16.24645" width="12.4419" height="14.82411"/></g><g class="cls-8"><rect x="29.67054" y="16.24645" width="15.04103" height="14.83957"/></g><g class="cls-9"><rect x="35.59519" y="16.13408" width="15.11575" height="15.04878"/></g><g class="cls-10"><rect x="5.43099" y="23.3866" width="16.92059" height="15.63017"/></g><g class="cls-11"><rect x="13.27103" y="24.06864" width="15.43823" height="15.04878"/></g><g class="cls-12"><rect x="19.21555" y="24.181" width="15.20209" height="14.83957"/></g><g class="cls-13"><rect x="25.04177" y="24.18102" width="12.4419" height="14.82411"/></g><g class="cls-14"><rect x="28.43759" y="24.18102" width="14.25848" height="14.82411"/></g><g class="cls-15"><rect x="33.90989" y="24.06868" width="13.87313" height="15.04878"/></g></svg>